<svg width="24" height="24" viewBox="0 0 24 24" fill="none" xmlns="http://www.w3.org/2000/svg">
<path d="M20.25 7.40625V7.5C20.25 8.49456 19.8549 9.44839 19.1516 10.1517C18.4484 10.8549 17.4946 11.25 16.5 11.25H12.75V18.75H13.5C13.8039 18.7502 14.1007 18.658 14.351 18.4857C14.6014 18.3135 14.7935 18.0692 14.902 17.7853C15.0104 17.5014 15.0301 17.1913 14.9584 16.896C14.8867 16.6006 14.7269 16.3341 14.5003 16.1316C14.3596 15.9971 14.2766 15.8132 14.269 15.6187C14.2614 15.4242 14.3296 15.2344 14.4594 15.0893C14.5891 14.9442 14.7702 14.8553 14.9643 14.8412C15.1584 14.8272 15.3504 14.8892 15.4997 15.0141C15.9525 15.4191 16.2716 15.9521 16.4149 16.5425C16.5582 17.1328 16.5189 17.7528 16.3021 18.3203C16.0854 18.8879 15.7014 19.3762 15.201 19.7208C14.7007 20.0654 14.1075 20.2499 13.5 20.25H12.75V21.75C12.75 21.9489 12.671 22.1397 12.5303 22.2803C12.3897 22.421 12.1989 22.5 12 22.5C11.8011 22.5 11.6103 22.421 11.4697 22.2803C11.329 22.1397 11.25 21.9489 11.25 21.75V20.25H9C8.80109 20.25 8.61032 20.171 8.46967 20.0303C8.32902 19.8897 8.25 19.6989 8.25 19.5C8.25 19.3011 8.32902 19.1103 8.46967 18.9697C8.61032 18.829 8.80109 18.75 9 18.75H11.25V11.25H9C8.60218 11.25 8.22064 11.408 7.93934 11.6893C7.65804 11.9706 7.5 12.3522 7.5 12.75C7.5 13.1478 7.65804 13.5294 7.93934 13.8107C8.22064 14.092 8.60218 14.25 9 14.25C9.19891 14.25 9.38968 14.329 9.53033 14.4697C9.67098 14.6103 9.75 14.8011 9.75 15C9.75 15.1989 9.67098 15.3897 9.53033 15.5303C9.38968 15.671 9.19891 15.75 9 15.75C8.20435 15.75 7.44129 15.4339 6.87868 14.8713C6.31607 14.3087 6 13.5456 6 12.75C6 11.9544 6.31607 11.1913 6.87868 10.6287C7.44129 10.0661 8.20435 9.75 9 9.75H11.25V2.25C11.25 2.05109 11.329 1.86032 11.4697 1.71967C11.6103 1.57902 11.8011 1.5 12 1.5C12.1989 1.5 12.3897 1.57902 12.5303 1.71967C12.671 1.86032 12.75 2.05109 12.75 2.25V9.75H16.5C17.0967 9.75 17.669 9.51295 18.091 9.09099C18.5129 8.66903 18.75 8.09674 18.75 7.5V7.40625C18.75 6.83438 18.5228 6.28593 18.1184 5.88155C17.7141 5.47718 17.1656 5.25 16.5938 5.25H15C14.8011 5.25 14.6103 5.17098 14.4697 5.03033C14.329 4.88968 14.25 4.69891 14.25 4.5C14.25 4.30109 14.329 4.11032 14.4697 3.96967C14.6103 3.82902 14.8011 3.75 15 3.75H16.5938C17.5634 3.75 18.4934 4.13521 19.1791 4.82089C19.8648 5.50657 20.25 6.43655 20.25 7.40625ZM5.25 9H3C2.80109 9 2.61032 8.92098 2.46967 8.78033C2.32902 8.63968 2.25 8.44891 2.25 8.25V7.5C2.25 6.50544 2.64509 5.55161 3.34835 4.84835C4.05161 4.14509 5.00544 3.75 6 3.75H9C9.19891 3.75 9.38968 3.82902 9.53033 3.96967C9.67098 4.11032 9.75 4.30109 9.75 4.5C9.75 4.69891 9.67098 4.88968 9.53033 5.03033C9.38968 5.17098 9.19891 5.25 9 5.25C9 5.74246 8.903 6.23009 8.71455 6.68506C8.52609 7.14003 8.24987 7.55343 7.90165 7.90165C7.55343 8.24987 7.14003 8.52609 6.68506 8.71455C6.23009 8.903 5.74246 9 5.25 9ZM7.5 5.25H6C5.40326 5.25 4.83097 5.48705 4.40901 5.90901C3.98705 6.33097 3.75 6.90326 3.75 7.5H5.25C5.84674 7.5 6.41903 7.26295 6.84099 6.84099C7.26295 6.41903 7.5 5.84674 7.5 5.25Z" fill="#2D8E86"/>
</svg>
