<svg width="24" height="24" viewBox="0 0 24 24" fill="none" xmlns="http://www.w3.org/2000/svg">
<path d="M12.7501 7.50009V11.5754L16.1363 13.607C16.3069 13.7094 16.4298 13.8754 16.478 14.0685C16.5261 14.2615 16.4956 14.4658 16.3932 14.6363C16.2908 14.8069 16.1248 14.9298 15.9317 14.978C15.7387 15.0261 15.5344 14.9957 15.3638 14.8932L11.6138 12.6432C11.5028 12.5765 11.411 12.4823 11.3473 12.3696C11.2835 12.2569 11.25 12.1296 11.2501 12.0001V7.50009C11.2501 7.30118 11.3291 7.11041 11.4697 6.96976C11.6104 6.82911 11.8012 6.75009 12.0001 6.75009C12.199 6.75009 12.3898 6.82911 12.5304 6.96976C12.6711 7.11041 12.7501 7.30118 12.7501 7.50009ZM21.0001 5.25009C20.8012 5.25009 20.6104 5.32911 20.4697 5.46976C20.3291 5.61042 20.2501 5.80118 20.2501 6.00009V7.68759C19.6548 6.99759 19.0473 6.33291 18.3638 5.64103C17.1131 4.39013 15.5214 3.53555 13.7877 3.18408C12.0541 2.83261 10.2552 2.99983 8.61606 3.66484C6.97688 4.32986 5.57002 5.46318 4.57126 6.9232C3.57251 8.38321 3.02615 10.1052 3.00046 11.8739C2.97477 13.6427 3.47089 15.3798 4.42682 16.8682C5.38275 18.3566 6.7561 19.5303 8.37528 20.2427C9.99445 20.955 11.7876 21.1744 13.5308 20.8734C15.274 20.5724 16.8898 19.7645 18.1763 18.5504C18.248 18.4827 18.3056 18.4015 18.3459 18.3115C18.3862 18.2216 18.4083 18.1245 18.4111 18.026C18.4139 17.9274 18.3972 17.8293 18.3621 17.7372C18.327 17.6451 18.274 17.5608 18.2063 17.4892C18.1386 17.4175 18.0574 17.3599 17.9675 17.3196C17.8775 17.2793 17.7805 17.2571 17.6819 17.2544C17.5834 17.2516 17.4852 17.2682 17.3931 17.3034C17.301 17.3385 17.2167 17.3914 17.1451 17.4592C16.0726 18.4698 14.7262 19.1422 13.2739 19.3923C11.8216 19.6423 10.3278 19.459 8.97908 18.8652C7.63036 18.2713 6.48646 17.2933 5.69024 16.0533C4.89402 14.8132 4.48075 13.3661 4.50205 11.8926C4.52336 10.4191 4.97828 8.98452 5.81001 7.76801C6.64175 6.5515 7.81344 5.60697 9.17876 5.05239C10.5441 4.4978 12.0425 4.35772 13.487 4.64965C14.9315 4.94157 16.2579 5.65257 17.3007 6.69384C18.0638 7.46634 18.7323 8.21072 19.4063 9.00009H17.2501C17.0512 9.00009 16.8604 9.07911 16.7197 9.21976C16.5791 9.36041 16.5001 9.55118 16.5001 9.75009C16.5001 9.94901 16.5791 10.1398 16.7197 10.2804C16.8604 10.4211 17.0512 10.5001 17.2501 10.5001H21.0001C21.199 10.5001 21.3898 10.4211 21.5304 10.2804C21.6711 10.1398 21.7501 9.94901 21.7501 9.75009V6.00009C21.7501 5.80118 21.6711 5.61042 21.5304 5.46976C21.3898 5.32911 21.199 5.25009 21.0001 5.25009Z" fill="#2D8E86"/>
</svg>
