<svg width="40" height="40" viewBox="0 0 40 40" fill="none" xmlns="http://www.w3.org/2000/svg">
<circle cx="20" cy="20" r="20" fill="#D0E5E3"/>
<path d="M30.5 19.9897C30.5007 20.2569 30.4299 20.5195 30.2951 20.7502C30.1603 20.981 29.9663 21.1715 29.7331 21.3022L13.9906 30.3031C13.7647 30.4311 13.5097 30.4989 13.25 30.5C13.0107 30.4987 12.7752 30.4402 12.5632 30.3293C12.3512 30.2185 12.1687 30.0586 12.0311 29.8628C11.8934 29.6671 11.8046 29.4413 11.772 29.2043C11.7394 28.9673 11.764 28.7259 11.8437 28.5003L14.375 21.005C14.3997 20.9317 14.4465 20.8679 14.509 20.8222C14.5714 20.7766 14.6464 20.7513 14.7237 20.75H21.5C21.6028 20.7502 21.7046 20.7293 21.799 20.6885C21.8934 20.6478 21.9784 20.588 22.0487 20.513C22.119 20.438 22.1732 20.3494 22.2078 20.2526C22.2424 20.1558 22.2568 20.0529 22.25 19.9503C22.233 19.7574 22.1437 19.5781 22.0002 19.4482C21.8566 19.3184 21.6692 19.2476 21.4756 19.25H14.7256C14.6472 19.25 14.5707 19.2254 14.5069 19.1796C14.4432 19.1339 14.3954 19.0693 14.3703 18.995L11.8391 11.5006C11.7383 11.2133 11.7273 10.9022 11.8076 10.6086C11.8879 10.315 12.0556 10.0527 12.2885 9.85664C12.5214 9.66059 12.8084 9.54004 13.1114 9.51099C13.4144 9.48195 13.7191 9.54579 13.985 9.69403L29.735 18.6837C29.9668 18.814 30.1598 19.0036 30.2943 19.2331C30.4287 19.4626 30.4997 19.7237 30.5 19.9897Z" fill="#1E3330"/>
</svg>
