<svg width="24" height="24" viewBox="0 0 24 24" fill="none" xmlns="http://www.w3.org/2000/svg">
<path d="M22.9498 14.1002C22.871 14.1593 22.7813 14.2023 22.6859 14.2267C22.5905 14.2511 22.4912 14.2566 22.3937 14.2426C22.2962 14.2287 22.2024 14.1957 22.1177 14.1455C22.0329 14.0953 21.9589 14.029 21.8998 13.9502C21.4477 13.3425 20.8593 12.8495 20.182 12.5108C19.5046 12.1721 18.7571 11.9972 17.9998 12.0002C17.8523 12.0002 17.7081 11.9567 17.5852 11.8751C17.4623 11.7936 17.3662 11.6776 17.3089 11.5417C17.2699 11.4495 17.2499 11.3503 17.2499 11.2502C17.2499 11.15 17.2699 11.0509 17.3089 10.9586C17.3662 10.8227 17.4623 10.7068 17.5852 10.6252C17.7081 10.5437 17.8523 10.5002 17.9998 10.5002C18.4206 10.5001 18.833 10.3821 19.1901 10.1594C19.5472 9.93677 19.8347 9.61844 20.0199 9.24058C20.2051 8.86273 20.2807 8.4405 20.238 8.02185C20.1953 7.6032 20.036 7.20493 19.7783 6.87225C19.5206 6.53958 19.1748 6.28584 18.7801 6.13987C18.3854 5.9939 17.9577 5.96154 17.5455 6.04646C17.1334 6.13139 16.7533 6.3302 16.4484 6.62031C16.1436 6.91043 15.9262 7.28021 15.821 7.68767C15.7964 7.78308 15.7532 7.87271 15.694 7.95144C15.6347 8.03017 15.5605 8.09645 15.4757 8.14651C15.3908 8.19656 15.2969 8.22941 15.1993 8.24318C15.1017 8.25694 15.0024 8.25135 14.907 8.22673C14.8116 8.20211 14.7219 8.15893 14.6432 8.09967C14.5645 8.04041 14.4982 7.96622 14.4481 7.88134C14.3981 7.79646 14.3652 7.70256 14.3515 7.60498C14.3377 7.50741 14.3433 7.40808 14.3679 7.31267C14.5139 6.74765 14.7898 6.22451 15.1736 5.78487C15.5574 5.34523 16.0385 5.00124 16.5786 4.78025C17.1187 4.55926 17.703 4.46738 18.2848 4.51191C18.8667 4.55645 19.4302 4.73618 19.9304 5.0368C20.4306 5.33742 20.8537 5.75063 21.1661 6.24356C21.4785 6.73648 21.6715 7.29552 21.7299 7.87618C21.7882 8.45684 21.7102 9.0431 21.5021 9.58831C21.2939 10.1335 20.9615 10.6226 20.531 11.0167C21.5509 11.4583 22.4374 12.159 23.1026 13.0492C23.1617 13.1282 23.2046 13.2181 23.2289 13.3137C23.2532 13.4093 23.2584 13.5088 23.2442 13.6064C23.23 13.704 23.1967 13.7979 23.1462 13.8826C23.0957 13.9673 23.0289 14.0413 22.9498 14.1002ZM17.8985 19.8752C17.9528 19.9605 17.9892 20.056 18.0057 20.1558C18.0221 20.2556 18.0181 20.3577 17.9941 20.456C17.97 20.5542 17.9263 20.6466 17.8656 20.7275C17.8049 20.8084 17.7285 20.8762 17.6409 20.9268C17.5534 20.9775 17.4565 21.0099 17.356 21.022C17.2556 21.0342 17.1538 21.026 17.0566 20.9978C16.9595 20.9696 16.8691 20.9221 16.7908 20.8581C16.7125 20.794 16.6479 20.7148 16.601 20.6252C16.1286 19.8252 15.4557 19.1622 14.6488 18.7016C13.8419 18.241 12.9289 17.9988 11.9998 17.9988C11.0707 17.9988 10.1577 18.241 9.35077 18.7016C8.54388 19.1622 7.871 19.8252 7.39855 20.6252C7.35166 20.7148 7.28713 20.794 7.20883 20.8581C7.13054 20.9221 7.04009 20.9696 6.94295 20.9978C6.8458 21.026 6.74396 21.0342 6.64355 21.022C6.54313 21.0099 6.44622 20.9775 6.35865 20.9268C6.27108 20.8762 6.19465 20.8084 6.13396 20.7275C6.07327 20.6466 6.02958 20.5542 6.00552 20.456C5.98145 20.3577 5.97751 20.2556 5.99393 20.1558C6.01034 20.056 6.04678 19.9605 6.10105 19.8752C6.82817 18.6258 7.93685 17.6427 9.26417 17.0702C8.51729 16.4983 7.96838 15.7068 7.69461 14.8069C7.42083 13.9069 7.43595 12.9438 7.73784 12.053C8.03973 11.1621 8.61321 10.3882 9.37767 9.84005C10.1421 9.29194 11.0591 8.99716 11.9998 8.99716C12.9404 8.99716 13.8575 9.29194 14.6219 9.84005C15.3864 10.3882 15.9599 11.1621 16.2617 12.053C16.5636 12.9438 16.5788 13.9069 16.305 14.8069C16.0312 15.7068 15.4823 16.4983 14.7354 17.0702C16.0627 17.6427 17.1714 18.6258 17.8985 19.8752ZM11.9998 16.5002C12.5931 16.5002 13.1732 16.3242 13.6665 15.9946C14.1599 15.6649 14.5444 15.1964 14.7714 14.6482C14.9985 14.1 15.0579 13.4968 14.9422 12.9149C14.8264 12.333 14.5407 11.7984 14.1211 11.3788C13.7016 10.9593 13.167 10.6736 12.5851 10.5578C12.0031 10.4421 11.3999 10.5015 10.8517 10.7285C10.3036 10.9556 9.83503 11.3401 9.50539 11.8335C9.17574 12.3268 8.9998 12.9068 8.9998 13.5002C8.9998 14.2958 9.31587 15.0589 9.87848 15.6215C10.4411 16.1841 11.2041 16.5002 11.9998 16.5002ZM6.7498 11.2502C6.7498 11.0513 6.67078 10.8605 6.53013 10.7198C6.38947 10.5792 6.19871 10.5002 5.9998 10.5002C5.57898 10.5001 5.1666 10.3821 4.80952 10.1594C4.45243 9.93677 4.16494 9.61844 3.9797 9.24058C3.79446 8.86273 3.7189 8.4405 3.76161 8.02185C3.80431 7.6032 3.96356 7.20493 4.22127 6.87225C4.47898 6.53958 4.82483 6.28584 5.21951 6.13987C5.6142 5.9939 6.04192 5.96154 6.45408 6.04646C6.86624 6.13139 7.24632 6.3302 7.55115 6.62031C7.85598 6.91043 8.07334 7.28021 8.17855 7.68767C8.22827 7.88036 8.35251 8.04541 8.52393 8.14651C8.69535 8.2476 8.89991 8.27646 9.09261 8.22673C9.2853 8.177 9.45035 8.05276 9.55145 7.88134C9.65254 7.70992 9.6814 7.50536 9.63167 7.31267C9.48565 6.74765 9.20977 6.22451 8.82599 5.78487C8.44221 5.34523 7.96112 5.00124 7.421 4.78025C6.88088 4.55926 6.29664 4.46738 5.71476 4.51191C5.13288 4.55645 4.56942 4.73618 4.06923 5.0368C3.56903 5.33742 3.1459 5.75063 2.8335 6.24356C2.5211 6.73648 2.32806 7.29552 2.26974 7.87618C2.21141 8.45684 2.28941 9.0431 2.49752 9.58831C2.70564 10.1335 3.03813 10.6226 3.46855 11.0167C2.44975 11.4587 1.56422 12.1594 0.899796 13.0492C0.780324 13.2084 0.72896 13.4084 0.757003 13.6054C0.785045 13.8024 0.890197 13.9802 1.04933 14.0997C1.20846 14.2192 1.40853 14.2705 1.60553 14.2425C1.80253 14.2144 1.98032 14.1093 2.0998 13.9502C2.55185 13.3425 3.14025 12.8495 3.81763 12.5108C4.49502 12.1721 5.24246 11.9972 5.9998 12.0002C6.19871 12.0002 6.38947 11.9211 6.53013 11.7805C6.67078 11.6398 6.7498 11.4491 6.7498 11.2502Z" fill="#2D8E86"/>
</svg>
